<?xml version="1.0" standalone="no"?>
<!DOCTYPE svg PUBLIC "-//W3C//DTD SVG 20010904//EN"
 "http://www.w3.org/TR/2001/REC-SVG-20010904/DTD/svg10.dtd">
<svg version="1.0" xmlns="http://www.w3.org/2000/svg"
 width="512.000000pt" height="512.000000pt" viewBox="0 0 512.000000 512.000000"
 preserveAspectRatio="xMidYMid meet">

<g transform="translate(0.000000,512.000000) scale(0.100000,-0.100000)"
fill="#000000" stroke="none">
<path d="M1895 4659 c-17 -4 -44 -22 -60 -39 -16 -16 -97 -148 -180 -293
l-151 -262 -530 -6 c-397 -4 -539 -8 -569 -18 -88 -29 -180 -84 -240 -145 -76
-76 -120 -151 -145 -252 -19 -75 -20 -113 -20 -1388 0 -1138 2 -1320 15 -1375
47 -196 191 -347 390 -408 57 -17 150 -18 2155 -18 2005 0 2098 1 2155 18 199
61 343 212 390 408 13 55 15 237 15 1375 0 1275 -1 1313 -20 1388 -25 101 -69
176 -144 252 -66 65 -127 103 -221 137 -58 21 -77 22 -589 27 l-530 5 -151
262 c-83 145 -164 276 -180 293 -16 17 -45 35 -64 40 -45 12 -1284 12 -1326
-1z m1337 -569 c164 -283 177 -302 215 -327 25 -17 76 -18 608 -23 l582 -5 49
-30 c30 -19 60 -49 79 -79 l30 -49 0 -1321 0 -1321 -28 -47 c-32 -55 -71 -85
-134 -104 -69 -21 -4077 -21 -4146 0 -63 19 -102 49 -134 104 l-28 47 0 1321
0 1321 30 49 c19 30 49 60 79 79 l49 30 581 5 c414 4 587 8 601 17 39 22 65
61 205 303 78 135 148 255 156 268 l15 22 522 -2 522 -3 147 -255z"/>
<path d="M2415 3564 c-305 -47 -534 -157 -738 -353 -428 -412 -517 -1045 -219
-1559 188 -325 517 -554 886 -617 116 -20 318 -19 436 1 491 84 893 457 1016
942 96 378 19 766 -214 1079 -181 242 -450 415 -752 484 -83 19 -346 33 -415
23z m376 -343 c329 -86 583 -327 683 -648 137 -441 -70 -926 -484 -1133 -146
-73 -263 -100 -430 -100 -167 0 -284 27 -430 100 -250 125 -433 357 -502 636
-30 125 -30 314 0 438 91 370 388 650 765 722 100 19 299 12 398 -15z"/>
<path d="M2415 2954 c-297 -65 -525 -338 -529 -634 -1 -85 14 -121 67 -157 50
-35 104 -38 156 -11 64 33 79 60 95 163 15 104 40 159 102 225 56 60 139 98
239 109 58 7 83 15 111 36 88 67 83 190 -9 259 -36 27 -137 31 -232 10z"/>
<path d="M4090 3418 c-99 -66 -100 -201 -2 -268 33 -23 46 -25 176 -28 131 -3
144 -2 185 20 58 30 83 65 89 126 3 39 0 58 -17 89 -42 73 -56 78 -236 81
-154 3 -162 2 -195 -20z"/>
</g>
</svg>
