<svg xmlns="http://www.w3.org/2000/svg" width="682.667" height="682.667" viewBox="0 0 512 512"><path d="M189.5 46.1c-1.7.4-4.4 2.2-6 3.9-1.6 1.6-9.7 14.8-18 29.3l-15.1 26.2-53 .6c-39.7.4-53.9.8-56.9 1.8-8.8 2.9-18 8.4-24 14.5-7.6 7.6-12 15.1-14.5 25.2-1.9 7.5-2 11.3-2 138.8 0 113.8.2 132 1.5 137.5 4.7 19.6 19.1 34.7 39 40.8 5.7 1.7 15 1.8 215.5 1.8s209.8-.1 215.5-1.8c19.9-6.1 34.3-21.2 39-40.8 1.3-5.5 1.5-23.7 1.5-137.5 0-127.5-.1-131.3-2-138.8-2.5-10.1-6.9-17.6-14.4-25.2-6.6-6.5-12.7-10.3-22.1-13.7-5.8-2.1-7.7-2.2-58.9-2.7l-53-.5-15.1-26.2c-8.3-14.5-16.4-27.6-18-29.3s-4.5-3.5-6.4-4c-4.5-1.2-128.4-1.2-132.6.1M323.2 103c16.4 28.3 17.7 30.2 21.5 32.7 2.5 1.7 7.6 1.8 60.8 2.3l58.2.5 4.9 3c3 1.9 6 4.9 7.9 7.9l3 4.9v264.2l-2.8 4.7c-3.2 5.5-7.1 8.5-13.4 10.4-6.9 2.1-407.7 2.1-414.6 0-6.3-1.9-10.2-4.9-13.4-10.4l-2.8-4.7V154.3l3-4.9c1.9-3 4.9-6 7.9-7.9l4.9-3 58.1-.5c41.4-.4 58.7-.8 60.1-1.7 3.9-2.2 6.5-6.1 20.5-30.3 7.8-13.5 14.8-25.5 15.6-26.8l1.5-2.2 52.2.2 52.2.3z"/><path d="M241.5 155.6c-30.5 4.7-53.4 15.7-73.8 35.3-42.8 41.2-51.7 104.5-21.9 155.9 18.8 32.5 51.7 55.4 88.6 61.7 11.6 2 31.8 1.9 43.6-.1 49.1-8.4 89.3-45.7 101.6-94.2 9.6-37.8 1.9-76.6-21.4-107.9-18.1-24.2-45-41.5-75.2-48.4-8.3-1.9-34.6-3.3-41.5-2.3m37.6 34.3c32.9 8.6 58.3 32.7 68.3 64.8 13.7 44.1-7 92.6-48.4 113.3-14.6 7.3-26.3 10-43 10s-28.4-2.7-43-10c-25-12.5-43.3-35.7-50.2-63.6-3-12.5-3-31.4 0-43.8 9.1-37 38.8-65 76.5-72.2 10-1.9 29.9-1.2 39.8 1.5"/><path d="M241.5 216.6c-29.7 6.5-52.5 33.8-52.9 63.4-.1 8.5 1.4 12.1 6.7 15.7 5 3.5 10.4 3.8 15.6 1.1 6.4-3.3 7.9-6 9.5-16.3 1.5-10.4 4-15.9 10.2-22.5 5.6-6 13.9-9.8 23.9-10.9 5.8-.7 8.3-1.5 11.1-3.6 8.8-6.7 8.3-19-.9-25.9-3.6-2.7-13.7-3.1-23.2-1M409 170.2c-9.9 6.6-10 20.1-.2 26.8 3.3 2.3 4.6 2.5 17.6 2.8 13.1.3 14.4.2 18.5-2 5.8-3 8.3-6.5 8.9-12.6.3-3.9 0-5.8-1.7-8.9-4.2-7.3-5.6-7.8-23.6-8.1-15.4-.3-16.2-.2-19.5 2"/></svg>