<?xml version="1.0" standalone="no"?>
<!DOCTYPE svg PUBLIC "-//W3C//DTD SVG 20010904//EN"
 "http://www.w3.org/TR/2001/REC-SVG-20010904/DTD/svg10.dtd">
<svg version="1.0" xmlns="http://www.w3.org/2000/svg"
 width="920.000000pt" height="512.000000pt" viewBox="0 0 920.000000 512.000000"
 preserveAspectRatio="xMidYMid meet">

<g transform="translate(0.000000,512.000000) scale(0.100000,-0.100000)"
fill="#000000" stroke="none">
<path d="M2585 4614 c-142 -30 -300 -128 -390 -242 -54 -67 -117 -194 -136
-272 -12 -45 -14 -327 -14 -1550 l0 -1495 27 -80 c39 -112 92 -198 173 -280
82 -81 168 -134 280 -173 l80 -27 1995 0 1995 0 80 27 c112 39 198 92 280 173
81 82 134 168 173 280 l27 80 0 1495 c0 1649 4 1540 -66 1685 -72 150 -173
252 -324 325 -154 75 -10 70 -2172 69 -1670 -1 -1948 -3 -2008 -15z m1517
-639 c107 -22 194 -69 269 -144 112 -112 166 -255 191 -508 l12 -123 33 0 c67
0 88 -53 87 -215 0 -79 -5 -111 -23 -154 -46 -113 -118 -187 -171 -176 -23 5
-29 -2 -69 -80 -25 -47 -73 -120 -108 -163 -92 -112 -95 -118 -95 -164 1 -45
21 -79 66 -112 24 -18 47 -22 189 -27 176 -7 213 -16 327 -75 78 -41 174 -134
225 -219 56 -93 76 -171 82 -321 9 -193 -13 -260 -100 -307 l-42 -22 -1005 -2
c-687 -2 -1022 1 -1058 8 -61 12 -117 56 -138 106 -17 40 -19 288 -3 365 20
100 84 214 163 292 128 128 258 176 475 176 104 0 132 3 161 19 52 28 75 64
75 121 0 40 -6 55 -32 87 -85 100 -128 160 -169 237 -36 69 -48 83 -64 79 -45
-12 -122 68 -164 171 -27 65 -36 150 -26 239 11 96 31 130 81 137 l34 5 7 105
c11 187 35 286 97 405 68 131 197 226 351 259 85 19 258 19 342 1z m2275 -255
c55 -33 63 -61 63 -227 0 -129 -3 -152 -20 -180 -40 -67 13 -63 -835 -63 -726
0 -769 0 -778 17 -5 10 -23 32 -40 50 -26 27 -31 45 -44 130 -8 54 -29 142
-47 196 l-32 97 850 0 c826 0 852 -1 883 -20z m0 -910 c55 -33 63 -62 63 -225
0 -163 -8 -192 -63 -225 -31 -19 -57 -20 -919 -20 l-888 0 0 63 c0 73 3 78 55
105 85 43 172 154 210 265 l19 57 746 0 c721 0 746 -1 777 -20z m0 -910 c55
-33 63 -62 63 -225 0 -163 -8 -192 -63 -225 -31 -19 -54 -20 -559 -20 l-528 0
0 74 c0 127 -45 307 -94 378 -9 12 -16 26 -16 30 0 5 262 8 583 8 560 0 583
-1 614 -20z"/>
</g>
</svg>
