<svg xmlns="http://www.w3.org/2000/svg" width="1226.667" height="682.667" viewBox="0 0 920 512"><path d="M258.5 50.6c-14.2 3-30 12.8-39 24.2-5.4 6.7-11.7 19.4-13.6 27.2-1.2 4.5-1.4 32.7-1.4 155v149.5l2.7 8c3.9 11.2 9.2 19.8 17.3 28 8.2 8.1 16.8 13.4 28 17.3l8 2.7h399l8-2.7c11.2-3.9 19.8-9.2 28-17.3 8.1-8.2 13.4-16.8 17.3-28l2.7-8V257c0-164.9.4-154-6.6-168.5-7.2-15-17.3-25.2-32.4-32.5-15.4-7.5-1-7-217.2-6.9-167 .1-194.8.3-200.8 1.5m151.7 63.9c10.7 2.2 19.4 6.9 26.9 14.4 11.2 11.2 16.6 25.5 19.1 50.8l1.2 12.3h3.3c6.7 0 8.8 5.3 8.7 21.5 0 7.9-.5 11.1-2.3 15.4-4.6 11.3-11.8 18.7-17.1 17.6-2.3-.5-2.9.2-6.9 8-2.5 4.7-7.3 12-10.8 16.3-9.2 11.2-9.5 11.8-9.5 16.4.1 4.5 2.1 7.9 6.6 11.2 2.4 1.8 4.7 2.2 18.9 2.7 17.6.7 21.3 1.6 32.7 7.5 7.8 4.1 17.4 13.4 22.5 21.9 5.6 9.3 7.6 17.1 8.2 32.1.9 19.3-1.3 26-10 30.7l-4.2 2.2-100.5.2c-68.7.2-102.2-.1-105.8-.8-6.1-1.2-11.7-5.6-13.8-10.6-1.7-4-1.9-28.8-.3-36.5 2-10 8.4-21.4 16.3-29.2 12.8-12.8 25.8-17.6 47.5-17.6 10.4 0 13.2-.3 16.1-1.9 5.2-2.8 7.5-6.4 7.5-12.1 0-4-.6-5.5-3.2-8.7-8.5-10-12.8-16-16.9-23.7-3.6-6.9-4.8-8.3-6.4-7.9-4.5 1.2-12.2-6.8-16.4-17.1-2.7-6.5-3.6-15-2.6-23.9 1.1-9.6 3.1-13 8.1-13.7l3.4-.5.7-10.5c1.1-18.7 3.5-28.6 9.7-40.5 6.8-13.1 19.7-22.6 35.1-25.9 8.5-1.9 25.8-1.9 34.2-.1M637.7 140c5.5 3.3 6.3 6.1 6.3 22.7 0 12.9-.3 15.2-2 18-4 6.7 1.3 6.3-83.5 6.3-72.6 0-76.9 0-77.8-1.7-.5-1-2.3-3.2-4-5-2.6-2.7-3.1-4.5-4.4-13-.8-5.4-2.9-14.2-4.7-19.6l-3.2-9.7h85c82.6 0 85.2.1 88.3 2m0 91c5.5 3.3 6.3 6.2 6.3 22.5s-.8 19.2-6.3 22.5c-3.1 1.9-5.7 2-91.9 2H457v-6.3c0-7.3.3-7.8 5.5-10.5 8.5-4.3 17.2-15.4 21-26.5l1.9-5.7H560c72.1 0 74.6.1 77.7 2m0 91c5.5 3.3 6.3 6.2 6.3 22.5s-.8 19.2-6.3 22.5c-3.1 1.9-5.4 2-55.9 2H529v-7.4c0-12.7-4.5-30.7-9.4-37.8-.9-1.2-1.6-2.6-1.6-3 0-.5 26.2-.8 58.3-.8 56 0 58.3.1 61.4 2"/></svg>