<?xml version="1.0" standalone="no"?>
<!DOCTYPE svg PUBLIC "-//W3C//DTD SVG 20010904//EN"
 "http://www.w3.org/TR/2001/REC-SVG-20010904/DTD/svg10.dtd">
<svg version="1.0" xmlns="http://www.w3.org/2000/svg"
 width="222.000000pt" height="227.000000pt" viewBox="0 0 222.000000 227.000000"
 preserveAspectRatio="xMidYMid meet">

<g transform="translate(0.000000,227.000000) scale(0.100000,-0.100000)"
fill="#000000" stroke="none">
<path d="M718 1977 c-345 -100 -629 -185 -632 -188 -4 -4 283 -1026 360 -1281
6 -20 -53 -35 737 192 l568 163 -7 31 c-6 28 -298 1040 -346 1199 -14 48 -24
67 -36 66 -10 0 -299 -83 -644 -182z m680 -328 c57 -198 102 -363 99 -365 -3
-3 -39 27 -81 65 -42 39 -80 71 -85 71 -5 0 -18 -16 -29 -35 -14 -23 -32 -37
-54 -43 -31 -8 -35 -13 -64 -104 -17 -53 -39 -106 -48 -119 -9 -13 -16 -26
-16 -30 0 -4 91 20 202 52 112 32 203 57 204 56 10 -16 22 -73 16 -79 -4 -4
-59 -23 -122 -42 -126 -38 -919 -266 -925 -266 -10 0 -26 73 -18 81 5 5 128
43 274 85 145 41 274 82 286 89 27 18 80 110 98 173 l15 50 -120 118 c-183
179 -204 189 -234 114 -19 -47 -58 -78 -108 -86 -22 -4 -43 -14 -48 -24 -5
-10 -23 -68 -40 -129 -31 -116 -53 -167 -114 -261 l-35 -55 -11 30 c-18 48
-200 681 -200 698 0 10 52 29 178 66 97 28 330 96 517 150 187 55 345 100 350
100 6 0 57 -162 113 -360z"/>
<path d="M418 1664 c-36 -19 -48 -43 -48 -94 0 -90 102 -134 170 -72 94 84
-11 227 -122 166z"/>
<path d="M1570 1826 c0 -7 7 -35 15 -63 14 -47 18 -51 52 -57 21 -3 59 -6 85
-6 26 0 49 -4 52 -8 2 -4 -3 -115 -12 -246 l-17 -238 43 -151 c24 -84 47 -155
51 -160 4 -4 22 198 41 448 18 250 31 458 28 460 -3 3 -61 10 -129 15 -68 6
-143 12 -166 14 -29 2 -43 0 -43 -8z"/>
<path d="M1968 1378 c-2 -77 -3 -98 -17 -251 -7 -77 -10 -141 -8 -143 7 -8
197 349 191 358 -3 5 -41 26 -85 48 l-79 40 -2 -52z"/>
<path d="M1371 667 c-363 -106 -448 -133 -425 -139 57 -14 859 -66 865 -56 4
6 10 60 14 122 4 61 10 132 15 159 5 32 4 47 -4 46 -6 0 -215 -60 -465 -132z"/>
<path d="M971 436 c4 -4 243 -134 421 -229 l106 -57 61 112 c61 112 68 128 53
128 -23 0 -563 40 -601 45 -25 3 -43 3 -40 1z"/>
</g>
</svg>
