<svg xmlns="http://www.w3.org/2000/svg" width="296" height="302.667" viewBox="0 0 222 227"><path d="M71.8 29.3C37.3 39.3 8.9 47.8 8.6 48.1c-.4.4 28.3 102.6 36 128.1.6 2-5.3 3.5 73.7-19.2l56.8-16.3-.7-3.1c-.6-2.8-29.8-104-34.6-119.9-1.4-4.8-2.4-6.7-3.6-6.6-1 0-29.9 8.3-64.4 18.2m68 32.8c5.7 19.8 10.2 36.3 9.9 36.5-.3.3-3.9-2.7-8.1-6.5-4.2-3.9-8-7.1-8.5-7.1s-1.8 1.6-2.9 3.5c-1.4 2.3-3.2 3.7-5.4 4.3-3.1.8-3.5 1.3-6.4 10.4-1.7 5.3-3.9 10.6-4.8 11.9s-1.6 2.6-1.6 3 9.1-2 20.2-5.2c11.2-3.2 20.3-5.7 20.4-5.6 1 1.6 2.2 7.3 1.6 7.9-.4.4-5.9 2.3-12.2 4.2-12.6 3.8-91.9 26.6-92.5 26.6-1 0-2.6-7.3-1.8-8.1.5-.5 12.8-4.3 27.4-8.5 14.5-4.1 27.4-8.2 28.6-8.9 2.7-1.8 8-11 9.8-17.3l1.5-5-12-11.8C84.7 68.5 82.6 67.5 79.6 75c-1.9 4.7-5.8 7.8-10.8 8.6-2.2.4-4.3 1.4-4.8 2.4s-2.3 6.8-4 12.9c-3.1 11.6-5.3 16.7-11.4 26.1l-3.5 5.5-1.1-3c-1.8-4.8-20-68.1-20-69.8 0-1 5.2-2.9 17.8-6.6 9.7-2.8 33-9.6 51.7-15 18.7-5.5 34.5-10 35-10 .6 0 5.7 16.2 11.3 36"/><path d="M41.8 60.6C38.2 62.5 37 64.9 37 70c0 9 10.2 13.4 17 7.2 9.4-8.4-1.1-22.7-12.2-16.6M157 44.4c0 .7.7 3.5 1.5 6.3 1.4 4.7 1.8 5.1 5.2 5.7 2.1.3 5.9.6 8.5.6s4.9.4 5.2.8c.2.4-.3 11.5-1.2 24.6l-1.7 23.8 4.3 15.1c2.4 8.4 4.7 15.5 5.1 16 .4.4 2.2-19.8 4.1-44.8 1.8-25 3.1-45.8 2.8-46-.3-.3-6.1-1-12.9-1.5-6.8-.6-14.3-1.2-16.6-1.4-2.9-.2-4.3 0-4.3.8M196.8 89.2c-.2 7.7-.3 9.8-1.7 25.1-.7 7.7-1 14.1-.8 14.3.7.8 19.7-34.9 19.1-35.8-.3-.5-4.1-2.6-8.5-4.8l-7.9-4zM137.1 160.3c-36.3 10.6-44.8 13.3-42.5 13.9 5.7 1.4 85.9 6.6 86.5 5.6.4-.6 1-6 1.4-12.2.4-6.1 1-13.2 1.5-15.9.5-3.2.4-4.7-.4-4.6-.6 0-21.5 6-46.5 13.2M97.1 183.4c.4.4 24.3 13.4 42.1 22.9l10.6 5.7 6.1-11.2c6.1-11.2 6.8-12.8 5.3-12.8-2.3 0-56.3-4-60.1-4.5-2.5-.3-4.3-.3-4-.1"/></svg>