<svg xmlns="http://www.w3.org/2000/svg" width="682.667" height="682.667" viewBox="0 0 512 512"><path d="M193.9 9.5c-11.7 3.2-21.2 10.4-26.9 20.3l-3.5 6.1-22 .1c-15.7 0-22.5.4-23.6 1.3-2.4 1.8-3.9 5.2-3.9 8.6V49H74.7C28 49 27.8 49 19 57.8c-9.9 10-9-12.5-9 218.7s-.9 208.7 9 218.7c9.7 9.6-7.5 8.8 186 8.8s176.3.8 186-8.8c9.5-9.6 9-4.6 9-87.9v-72.4l48.4-83.8c26.6-46.1 49.5-85.8 50.8-88.2 1.9-3.7 2.3-5.9 2.3-13.4 0-7.8-.4-9.7-2.8-14.7-3.5-7.2-9.1-12.1-20.2-17.8-8.4-4.3-9.1-4.5-17.4-4.5-10.4 0-15.8 2.2-22.3 8.7-2.8 2.8-10.4 14.9-21.3 33.8l-17 29.5-.5-57c-.6-65.2-.1-61.7-9.7-70.5-8.6-7.9-9.3-8-55-8H296v-3c0-3.7-2.3-8.5-4.5-9.4-.9-.3-11.5-.6-23.4-.6h-21.8l-1.9-4.2c-2.5-5.7-12.7-15.9-18.7-18.7-10.4-5-22.1-6.3-31.8-3.6m20 16.1c7 2 15.1 9.8 17.6 16.9 3.3 9.5 3.5 9.5 27.6 9.5H280v40H130V52h20.9c24.1 0 24.3 0 27.6-9.5 2.4-6.8 10.6-14.9 17.2-16.9 6.3-1.9 11.8-1.9 18.2 0M114 72v7H44.9l-2.4 2.5-2.5 2.4v385.2l2.5 2.4 2.4 2.5h319.8l2.7-2.1 2.6-2V427c0-36.7.2-42.9 1.5-44 .8-.7 3.8-5.3 6.7-10.4l5.3-9.1.3 57.4c.2 64.1.5 61.3-6.8 65.2-3.3 1.8-9.5 1.9-171.8 1.9-186.7 0-172.9.5-177.2-6.5-2-3.2-2-4.5-2-205.1 0-195.4.1-202 1.9-205 3.8-6.3 4.5-6.4 47.4-6.4H114zm262.5-5.6c1.9.8 4.4 3 5.5 4.8 1.9 3.2 2 4.9 2 72.6v69.3l-6.7 11.7-6.8 11.7-.3-76.7-.2-76.7-2.6-2c-2.6-2-3.8-2.1-37-2.1H296V65h38.5c31.3 0 39.2.3 42 1.4M114 98c0 4.1 1.8 7.6 4.7 8.9 1.7.8 26.9 1.1 86.3 1.1s84.6-.3 86.3-1.1c2.9-1.3 4.7-4.8 4.7-8.9v-3h58v170.1l-23 39.8-23 39.9V360l-59.1.2-59.1.3-2.5 2.9c-1.9 2.3-2.3 3.6-1.9 6 1.3 6.4-2.1 6.1 62.9 6.6l59.2.5.3 10.2.3 10.3-59 .2-59 .3-2.3 2.2c-2.7 2.8-3 8.6-.5 11.1 1.6 1.6 6.8 1.7 66.5 2.2l64.7.5 17.2-9.7c9.4-5.4 17.4-9.8 17.7-9.8s.6 14.4.6 32v32H56V95h58zm357.9 33.6c3.6 2 7.7 4.6 9 5.7 5.2 4.8 6.5 13 3.1 19.7-1.9 3.8-115.4 200.6-118.8 206.2l-1.7 2.7-17.8-10.4c-9.8-5.6-18.1-10.5-18.3-10.8-.7-.7 119-208.3 122-211.6 5.5-6.1 13.2-6.6 22.5-1.5M337.8 369.5c6.6 3.8 11.9 7.2 11.6 7.6-.2.4-5.7 3.8-12.2 7.5-6.4 3.6-12 6.9-12.4 7.1-.5.2-.8-6.4-.8-14.7 0-8.4.4-15 .8-14.8.5.1 6.3 3.4 13 7.3"/><path d="M201 37.2c-1.4.7-3.3 3-4.3 5-1.6 3.3-1.7 4-.3 7.2 4.1 9.8 18.1 7.2 18.1-3.5 0-6.8-7.6-11.7-13.5-8.7M189.2 159.7c-1.5.6-4.2 5.6-4.2 7.8 0 .9 1.3 3 2.9 4.6l2.9 2.9h63.5c61.7 0 63.5-.1 66-2 1.3-1.1 2.8-3.1 3.1-4.5.7-2.9-1.5-7.9-3.9-8.9-2-.7-128.4-.7-130.3.1M145.3 163.2c-2.1 1.8-10.3 9.1-18.2 16.3-7.8 7.1-14.7 13.2-15.2 13.4-.6.1-4.1-2.7-7.9-6.3-7.8-7.5-11-8.4-15-4.1-4.6 4.9-3.5 7.5 8 19 5.7 5.7 11.4 10.6 12.7 11 1.3.3 3.4 0 4.7-.7 2.8-1.6 40.7-35.9 43.6-39.5 2.6-3.3 2.5-6.3-.1-9.7-3-3.8-7.6-3.5-12.6.6M189.2 196.7c-1.5.6-4.2 5.6-4.2 7.8 0 .9 1.3 3 2.9 4.6l2.9 2.9h63.5c61.7 0 63.5-.1 66-2 1.3-1.1 2.8-3.1 3.1-4.5.7-2.9-1.5-7.9-3.9-8.9-2-.7-128.4-.7-130.3.1M130.3 276.5c-10 9.1-18.6 16.5-19 16.5-.5 0-3.8-2.9-7.3-6.5-6.8-6.8-10.3-8.1-14.2-5.1-2.5 1.9-3.9 6.2-2.9 8.8 1.2 3 20 21.4 22.6 22.1 1.1.3 3.2.1 4.7-.6 2.8-1.3 40.4-35.2 43.8-39.5 4.1-5.2.8-12.2-5.8-12.2-3.4 0-5.3 1.5-21.9 16.5M187.9 261.9c-3.1 2.5-3.2 8.3-.1 11.4l2.3 2.2h128.8l2.3-2.2c3.1-3.1 3-8.9-.1-11.4-2.2-1.8-5.3-1.9-66.6-1.9s-64.4.1-66.6 1.9M187.9 298.9c-3.1 2.5-3.2 8.3-.1 11.4l2.3 2.2 63.2.2c68.3.3 66.9.4 69.5-5.1 1.6-3.2.2-8-2.9-9.6-1.1-.6-26.7-1-65.7-1-61 0-64.1.1-66.3 1.9M149.4 361c-1.1.4-10 8.1-19.8 17l-17.8 16.1-6.8-6.5c-7-6.8-10.4-8.1-15-5.6-2.4 1.3-4.2 6.5-3.1 9.3.5 1.2 5.4 6.6 10.9 11.9 14 13.8 12.2 14.1 35.4-6.8 24.4-22.1 26.8-24.6 26.8-28.2 0-4.8-6.1-9-10.6-7.2"/></svg>