<?xml version="1.0" standalone="no"?>
<!DOCTYPE svg PUBLIC "-//W3C//DTD SVG 20010904//EN"
 "http://www.w3.org/TR/2001/REC-SVG-20010904/DTD/svg10.dtd">
<svg version="1.0" xmlns="http://www.w3.org/2000/svg"
 width="512.000000pt" height="512.000000pt" viewBox="0 0 512.000000 512.000000"
 preserveAspectRatio="xMidYMid meet">

<g transform="translate(0.000000,512.000000) scale(0.100000,-0.100000)"
fill="#000000" stroke="none">
<path d="M1939 5025 c-117 -32 -212 -104 -269 -203 l-35 -61 -220 -1 c-157 0
-225 -4 -236 -13 -24 -18 -39 -52 -39 -86 l0 -31 -393 0 c-467 0 -469 0 -557
-88 -99 -100 -90 125 -90 -2187 0 -2312 -9 -2087 90 -2187 97 -96 -75 -88
1860 -88 1935 0 1763 -8 1860 88 95 96 90 46 90 879 l0 724 484 838 c266 461
495 858 508 882 19 37 23 59 23 134 0 78 -4 97 -28 147 -35 72 -91 121 -202
178 -84 43 -91 45 -174 45 -104 0 -158 -22 -223 -87 -28 -28 -104 -149 -213
-338 l-170 -295 -5 570 c-6 652 -1 617 -97 705 -86 79 -93 80 -550 80 l-393 0
0 30 c0 37 -23 85 -45 94 -9 3 -115 6 -234 6 l-218 0 -19 42 c-25 57 -127 159
-187 187 -104 50 -221 63 -318 36z m200 -161 c70 -20 151 -98 176 -169 33 -95
35 -95 276 -95 l209 0 0 -200 0 -200 -750 0 -750 0 0 200 0 200 209 0 c241 0
243 0 276 95 24 68 106 149 172 169 63 19 118 19 182 0z m-999 -464 l0 -70
-345 0 -346 0 -24 -25 -25 -24 0 -1926 0 -1926 25 -24 24 -25 1599 0 1599 0
27 21 26 20 0 429 c0 367 2 429 15 440 8 7 38 53 67 104 l53 91 3 -574 c2
-641 5 -613 -68 -652 -33 -18 -95 -19 -1718 -19 -1867 0 -1729 -5 -1772 65
-20 32 -20 45 -20 2051 0 1954 1 2020 19 2050 38 63 45 64 474 64 l387 0 0
-70z m2625 56 c19 -8 44 -30 55 -48 19 -32 20 -49 20 -726 l0 -693 -67 -117
-68 -117 -3 767 -2 767 -26 20 c-26 20 -38 21 -370 21 l-344 0 0 70 0 70 385
0 c313 0 392 -3 420 -14z m-2625 -316 c0 -41 18 -76 47 -89 17 -8 269 -11 863
-11 594 0 846 3 863 11 29 13 47 48 47 89 l0 30 290 0 290 0 0 -850 0 -851
-230 -398 -230 -399 0 -76 0 -76 -591 -2 -591 -3 -25 -29 c-19 -23 -23 -36
-19 -60 13 -64 -21 -61 629 -66 l592 -5 3 -102 3 -103 -590 -2 -590 -3 -23
-22 c-27 -28 -30 -86 -5 -111 16 -16 68 -17 665 -22 l647 -5 172 97 c94 54
174 98 177 98 3 0 6 -144 6 -320 l0 -320 -1490 0 -1490 0 0 1815 0 1815 290 0
290 0 0 -30z m3579 -336 c36 -20 77 -46 90 -57 52 -48 65 -130 31 -197 -19
-38 -1154 -2006 -1188 -2062 l-17 -27 -178 104 c-98 56 -181 105 -183 108 -7
7 1190 2083 1220 2116 55 61 132 66 225 15z m-1341 -2379 c66 -38 119 -72 116
-76 -2 -4 -57 -38 -122 -75 -64 -36 -120 -69 -124 -71 -5 -2 -8 64 -8 147 0
84 4 150 8 148 5 -1 63 -34 130 -73z"/>
<path d="M2010 4748 c-14 -7 -33 -30 -43 -50 -16 -33 -17 -40 -3 -72 41 -98
181 -72 181 35 0 68 -76 117 -135 87z"/>
<path d="M1892 3523 c-15 -6 -42 -56 -42 -78 0 -9 13 -30 29 -46 l29 -29 635
0 c617 0 635 1 660 20 13 11 28 31 31 45 7 29 -15 79 -39 89 -20 7 -1284 7
-1303 -1z"/>
<path d="M1453 3488 c-21 -18 -103 -91 -182 -163 -78 -71 -147 -132 -152 -134
-6 -1 -41 27 -79 63 -78 75 -110 84 -150 41 -46 -49 -35 -75 80 -190 57 -57
114 -106 127 -110 13 -3 34 0 47 7 28 16 407 359 436 395 26 33 25 63 -1 97
-30 38 -76 35 -126 -6z"/>
<path d="M1892 3153 c-15 -6 -42 -56 -42 -78 0 -9 13 -30 29 -46 l29 -29 635
0 c617 0 635 1 660 20 13 11 28 31 31 45 7 29 -15 79 -39 89 -20 7 -1284 7
-1303 -1z"/>
<path d="M1303 2355 c-100 -91 -186 -165 -190 -165 -5 0 -38 29 -73 65 -68 68
-103 81 -142 51 -25 -19 -39 -62 -29 -88 12 -30 200 -214 226 -221 11 -3 32
-1 47 6 28 13 404 352 438 395 41 52 8 122 -58 122 -34 0 -53 -15 -219 -165z"/>
<path d="M1879 2501 c-31 -25 -32 -83 -1 -114 l23 -22 644 0 644 0 23 22 c31
31 30 89 -1 114 -22 18 -53 19 -666 19 -613 0 -644 -1 -666 -19z"/>
<path d="M1879 2131 c-31 -25 -32 -83 -1 -114 l23 -22 632 -2 c683 -3 669 -4
695 51 16 32 2 80 -29 96 -11 6 -267 10 -657 10 -610 0 -641 -1 -663 -19z"/>
<path d="M1494 1510 c-11 -4 -100 -81 -198 -170 l-178 -161 -68 65 c-70 68
-104 81 -150 56 -24 -13 -42 -65 -31 -93 5 -12 54 -66 109 -119 140 -138 122
-141 354 68 244 221 268 246 268 282 0 48 -61 90 -106 72z"/>
</g>
</svg>
