<svg xmlns="http://www.w3.org/2000/svg" width="682.667" height="682.667" viewBox="0 0 512 512"><path d="M153.3 1.9c-8.1 3.7-8.5 5-14.7 47.5-3 20.8-5.7 38-5.9 38.2-.1.2-7.9 1.2-17.2 2.3-19.4 2.3-23.9 3.5-32.7 8.4-14.1 7.9-25.8 23.2-28.7 37.7-2.1 10.4-15.3 131.5-15.3 141-.1 15.4 5 31.2 14 43.1 2.2 3 44 45.3 92.9 94.1 77.7 77.5 89.6 89 94.8 91.5 8.8 4.3 14.9 5.8 24.5 5.7 10.6 0 19.1-2.4 27.3-7.6 7.3-4.6 167.4-164.3 172.6-172.1 7.8-11.5 10.7-30.3 6.6-42.8-4.7-14.4-2.3-11.8-91.4-101.3-46-46.1-87.3-87.1-91.8-91.1-4.5-3.9-11.3-8.8-15-10.8-18.6-9.7-27.8-10.4-72.7-5.3-17.6 2-32 3.5-32.1 3.4-.2-.2 1.9-15.3 4.6-33.7 5.3-35.8 5.3-37.7.7-43.6-2.6-3.3-9.1-6.5-13.3-6.5-1.6 0-4.9.9-7.2 1.9m104.2 95.5c3.8 1.5 9 4 11.5 5.6s44.6 43.1 93.6 92.2c86.1 86.2 89.2 89.5 91.4 95.3 2.9 8 2.9 17 0 25-2.2 5.8-5.2 8.9-85.3 89.2-57.5 57.6-84.5 84-87.8 85.8-9.7 5.2-22.2 5.4-32.4.3-5.8-2.9-177.2-174.2-182.9-182.8-2.4-3.6-5.4-9.2-6.6-12.5-4.2-11.2-3.9-18.7 3.4-84.5 8.1-72.5 8.2-73.2 11.4-80 3.5-7.4 11.6-15.4 19.5-19 5.1-2.5 9.1-3.3 21-4.7 8.1-.9 14.9-1.4 15.3-1 .6.5-1.2 15.6-1.9 16.3-.1.2-5.7 1-12.5 1.8-6.7.8-13.8 2.3-15.7 3.2-4.6 2.1-10.3 8.8-11.5 13.3-1.2 4.8-15 129.2-15 135.6 0 6.5 2.2 14.4 5.5 20.3 2.7 4.7 164.9 168.3 174.7 176.2 5.4 4.4 10.1 5.5 16 4 3.9-1 12.8-9.7 85.7-82.3 47.3-47.2 81.9-82.5 82.7-84.4 1.8-4.1 1.8-10.5 0-14.6-.8-1.9-37.7-39.5-88.7-90.4-93.3-93-90.8-90.8-103.5-93.4-5.4-1.1-9.9-.8-43.9 2.9-20.8 2.3-38 4.1-38.1 3.9-.3-.4 2.2-16.7 2.7-17 .2-.2 14.6-2 31.9-4 38.1-4.3 48.8-4.4 59.5-.3m-135 62.8c-1.5 10.5-2 16.9-1.5 19.3 3 13.2 19.3 17.8 28.6 8 3.6-3.9 4.8-7.9 7-24 .9-6.6 2-12.4 2.5-12.9 1-1.2 6.1 4.4 8.8 9.8 8.7 17.6 1.4 37.9-16.8 46.5-4.6 2.1-7 2.6-13.6 2.6s-9-.5-13.6-2.6c-22.1-10.4-27.4-38.2-10.5-55.1 3.2-3.2 10.7-8.1 11.2-7.5.1.1-.9 7.3-2.1 15.9m139.8 124.5 17.3 82.2-8.7 8.7c-7.9 7.9-8.7 8.4-9.2 6.2-.3-1.2-8.3-39.1-17.8-84.1l-17.3-81.8 8.5-8.5c7-7.1 8.5-8.2 9.1-6.7.5 1 8.6 38.8 18.1 84m60.2-33.7c7.3 3.5 17.3 13.3 20.9 20.3 7.3 14.5 4.7 29.4-7 41.3-7.8 7.7-13 9.9-23.9 9.9-11.4 0-16.3-2.2-25.6-11.4-15.4-15.4-17.1-33.9-4.5-49.4 11.2-13.8 25.8-17.7 40.1-10.7m-117.4 10.4c4.8 2 13.2 8.4 17.4 13.3 13.7 16 13.3 35.1-1.2 49.7-10.6 10.8-24.5 13.6-37.2 7.6-8-3.8-17.4-13.2-21.6-21.5-2.7-5.3-3-7-3-15 0-10.8 2.1-16.1 9.9-24.3 8.5-9.1 16.1-12.5 26.1-11.8 3.3.3 7.6 1.2 9.6 2"/><path d="M298.6 270.1c-8.6 6.8-6.9 17.1 4.3 27.2 7.9 7.1 14.6 8.2 20.5 3.6 5.6-4.4 6.9-10.4 3.6-16.8-6.7-13.2-20.7-20.1-28.4-14M182.9 282.8c-7.2 6.7-6.2 14.9 2.8 23.9 5.8 5.9 10.1 8.3 14.7 8.3 7.8 0 14.5-7.3 13.3-14.6-.7-4.4-5.5-11.1-11-15.7-8.6-7-13.8-7.5-19.8-1.9"/></svg>