<?xml version="1.0" standalone="no"?>
<!DOCTYPE svg PUBLIC "-//W3C//DTD SVG 20010904//EN"
 "http://www.w3.org/TR/2001/REC-SVG-20010904/DTD/svg10.dtd">
<svg version="1.0" xmlns="http://www.w3.org/2000/svg"
 width="512.000000pt" height="512.000000pt" viewBox="0 0 512.000000 512.000000"
 preserveAspectRatio="xMidYMid meet">

<g transform="translate(0.000000,512.000000) scale(0.100000,-0.100000)"
fill="#000000" stroke="none">
<path d="M1533 5101 c-81 -37 -85 -50 -147 -475 -30 -208 -57 -380 -59 -382
-1 -2 -79 -12 -172 -23 -194 -23 -239 -35 -327 -84 -141 -79 -258 -232 -287
-377 -21 -104 -153 -1315 -153 -1410 -1 -154 50 -312 140 -431 22 -30 440
-453 929 -941 777 -775 896 -890 948 -915 88 -43 149 -58 245 -57 106 0 191
24 273 76 73 46 1674 1643 1726 1721 78 115 107 303 66 428 -47 144 -23 118
-914 1013 -460 461 -873 871 -918 911 -45 39 -113 88 -150 108 -186 97 -278
104 -727 53 -176 -20 -320 -35 -321 -34 -2 2 19 153 46 337 53 358 53 377 7
436 -26 33 -91 65 -133 65 -16 0 -49 -9 -72 -19z m1042 -955 c38 -15 90 -40
115 -56 25 -16 446 -431 936 -922 861 -862 892 -895 914 -953 29 -80 29 -170
0 -250 -22 -58 -52 -89 -853 -892 -575 -576 -845 -840 -878 -858 -97 -52 -222
-54 -324 -3 -58 29 -1772 1742 -1829 1828 -24 36 -54 92 -66 125 -42 112 -39
187 34 845 81 725 82 732 114 800 35 74 116 154 195 190 51 25 91 33 210 47
81 9 149 14 153 10 6 -5 -12 -156 -19 -163 -1 -2 -57 -10 -125 -18 -67 -8
-138 -23 -157 -32 -46 -21 -103 -88 -115 -133 -12 -48 -150 -1292 -150 -1356
0 -65 22 -144 55 -203 27 -47 1649 -1683 1747 -1762 54 -44 101 -55 160 -40
39 10 128 97 857 823 473 472 819 825 827 844 18 41 18 105 0 146 -8 19 -377
395 -887 904 -933 930 -908 908 -1035 934 -54 11 -99 8 -439 -29 -208 -23
-380 -41 -381 -39 -3 4 22 167 27 170 2 2 146 20 319 40 381 43 488 44 595 3z
m-1350 -628 c-15 -105 -20 -169 -15 -193 30 -132 193 -178 286 -80 36 39 48
79 70 240 9 66 20 124 25 129 10 12 61 -44 88 -98 87 -176 14 -379 -168 -465
-46 -21 -70 -26 -136 -26 -66 0 -90 5 -136 26 -221 104 -274 382 -105 551 32
32 107 81 112 75 1 -1 -9 -73 -21 -159z m1398 -1245 l173 -822 -87 -87 c-79
-79 -87 -84 -92 -62 -3 12 -83 391 -178 841 l-173 818 85 85 c70 71 85 82 91
67 5 -10 86 -388 181 -840z m602 337 c73 -35 173 -133 209 -203 73 -145 47
-294 -70 -413 -78 -77 -130 -99 -239 -99 -114 0 -163 22 -256 114 -154 154
-171 339 -45 494 112 138 258 177 401 107z m-1174 -104 c48 -20 132 -84 174
-133 137 -160 133 -351 -12 -497 -106 -108 -245 -136 -372 -76 -80 38 -174
132 -216 215 -27 53 -30 70 -30 150 0 108 21 161 99 243 85 91 161 125 261
118 33 -3 76 -12 96 -20z"/>
<path d="M2986 2419 c-86 -68 -69 -171 43 -272 79 -71 146 -82 205 -36 56 44
69 104 36 168 -67 132 -207 201 -284 140z"/>
<path d="M1829 2292 c-72 -67 -62 -149 28 -239 58 -59 101 -83 147 -83 78 0
145 73 133 146 -7 44 -55 111 -110 157 -86 70 -138 75 -198 19z"/>
</g>
</svg>
