<svg xmlns="http://www.w3.org/2000/svg" width="533.333" height="533.333" viewBox="0 0 400 400"><path d="M193.5 1c-10.4.3 9.4.6 44 .6 36.5 0 56.9-.2 48.5-.6-16.7-.9-64.7-.8-92.5 0M50 89c-7.9 1.7-12 6.2-12 13.2 0 10.5 4.4 12.7 27.3 13.5 18.4.7 21.3 1.5 22.2 6.6.9 4.5-.8 8.3-4.7 10.4-2.7 1.4-5.9 1.7-18.3 1.7-16.6 0-19.2-.7-20.2-5.5-.4-2.4-1-2.9-3.4-2.9-3.4 0-3.8 2.3-1.4 7 2.6 5 8.6 6.5 26 6.4 13 0 15.6-.3 19.7-2.1 6.1-2.8 8.1-5.9 8.1-12.9 0-10.8-4.4-13.2-24.8-13.4-21.2-.2-24.9-1.6-24.3-9.4.2-2.9 1-4.4 3.1-6 2.5-1.9 4.5-2.1 18-2.4 17.2-.4 20.3.3 21.8 4.8.9 2.4 1.7 3 4 3 2.7 0 2.9-.2 2.3-2.8-2-8.3-4.9-9.5-23.9-9.8-8.2-.2-17 .1-19.5.6m127.4.1c-8.9 2.1-12 10-11.2 28.4.6 13.1 2.3 16.9 8.3 19.6 4.2 1.9 6.3 2 25.4 1.7 22.5-.3 24-.7 27.8-6.5 1.5-2.3 1.8-5.1 1.8-18.8 0-24.4-.5-24.9-29-25.2-10.4-.1-20.8.3-23.1.8m44.2 7.2c2.3 2.7 2.4 3.5 2.4 16.8 0 14.7-1 18.9-4.7 20.4-2.8 1.1-27.2 1.9-34.7 1.1-4.8-.6-7.4-1.4-9.4-3.1-2.6-2.3-2.7-2.6-3-15.2-.4-14.6.8-20 4.8-22 1.9-1 7.6-1.3 22.3-1.1l19.9.3zM102 91.5V94h25v44h6V94.1l12.3-.3c11.8-.3 12.2-.4 12.5-2.6l.3-2.2H102zm139 21.9V138h6v-19h20c20 0 20.1 0 22.5 2.5 2.2 2.1 2.5 3.3 2.5 9.5v7h3c2.9 0 3-.1 3-4.8-.1-7.4-1.6-12.5-4.5-14.8-2.5-2-2.6-2.2-.7-2.6 3.3-.9 5.5-5.3 5.6-11.6.2-14.2-.6-14.6-32.6-15l-24.8-.4zm50.2-17.6c.8.8 1.3 3.8 1.3 7.7 0 10.1.4 9.9-24.5 10.3l-21 .4V93.9l21.5.3c15.9.2 21.7.6 22.7 1.6m17.8 17.7V138h25c24.3 0 25-.1 25-2s-.8-2-21.7-2.2l-21.8-.3-.3-8.7-.3-8.8 20.7-.2c20.7-.3 20.7-.3 20.9-2.6l.2-2.2H315V94l21.8-.2c21.7-.3 21.7-.3 22-2.6l.3-2.2H309z"/><path d="M397.1 145.2 397 200H2.1l-.3-8.8c-.2-4.8-.7 5.2-1.2 22.3C-.3 246.1.4 289 2.1 305c3 28.2 11.7 47.7 28.7 64.7 17 16.9 35 24.8 65.2 28.5 14.9 1.8 183 1.9 201.2 0 25.5-2.6 45.3-8.5 54.5-16.2.7-.5 1.6-1 2.1-1 1.8 0 6.2-4.2 5.6-5.2-.5-.7-.2-.8.5-.3.8.4 2.5-.6 4.7-2.9 1.9-2 3.8-3.6 4.4-3.6.5 0 1-.5 1-1.1 0-.5 1.9-3.1 4.3-5.5 2.3-2.5 4.9-5.8 5.7-7.2.8-1.5 1.8-2.9 2.1-3.2.7-.6 3.9-6.7 4-7.5 0-.2 1.3-3.1 2.9-6.4 1.7-3.3 3-6.7 3-7.6 0-1 .6-3.1 1.4-4.8 1.5-3.5 2-6 4.8-27.2 1.6-12 1.7-192 .1-201.5-.8-5.1-1.1 5.4-1.2 48.2m-307 112.5c4.8 2.2 7.9 6.7 7.9 11.7 0 2.3-.4 2.6-3.5 2.6-3.2 0-3.5-.3-3.5-2.9 0-1.6-.9-3.9-1.9-5.2-1.9-2.4-2.2-2.4-21-2.4-25 0-23.6-1.1-23.6 19.3 0 21.5-.4 21.2 24 21.2 19.1 0 22.5-1.4 22.5-8.9 0-2.9.2-3.1 3.6-3.1h3.7l-.6 4c-.6 4.8-2.7 8.3-6.4 10.7-2.4 1.6-5.3 1.8-23.4 1.8-19.4 0-20.9-.1-23.6-2.1-5.3-3.9-6.3-7.4-6.3-22.9 0-24.2 3.2-26.7 33-26.1 12 .2 15.3.6 19.1 2.3m196.5-.1c4.6 2.3 7 5.7 7.7 10.6.6 3.8.5 3.8-2.9 3.8-2.9 0-3.4-.3-3.4-2.4 0-1.4-1.1-3.8-2.4-5.3l-2.4-2.8-16.4-.3c-18.3-.4-22.8.4-24.6 4.3-.7 1.6-1.2 8-1.2 16.5 0 13.2.1 14 2.4 16.7l2.4 2.8h37.4l2.4-2.8c1.4-1.6 2.4-4.1 2.4-5.8 0-2.6.3-2.9 3.4-2.9 3.4 0 3.5 0 2.9 3.7-1.8 11.5-5.7 13.3-29.8 13.3-20.6 0-24.9-1.1-28.2-7.2-2.6-4.8-2.7-31.7 0-36.5 3.5-6.6 10.6-8.3 31.4-7.9 12.3.3 15.8.7 18.9 2.2m-172.4 9.6-.1 10.8H160v-22h6v50h-6v-22h-45l-.1 10.2c-.1 5.7-.1 10.6 0 11 0 .5-1.5.8-3.4.8H108v-50.1l3.2.3 3.2.3zM228 259v3h-43v16h41v6h-41v17h43v5h-50v-24.3c0-13.4.3-24.7.7-25 .3-.4 11.6-.7 25-.7H228zm83 8v11h4.2c3.7 0 6.1-1.3 20.4-11 14.1-9.6 16.8-11 20.3-11 2.3 0 4.1.3 4.1.7-.1.5-7.7 6-16.9 12.3-9.3 6.3-16.7 11.8-16.5 12.2.2.3 7.1 5.3 15.2 10.9 8.1 5.7 15.8 11.1 17.1 12.1l2.4 1.8h-4.9c-4.6 0-5.9-.8-20.8-11-14.3-9.9-16.3-11-20.3-11H311v22h-6v-50h6z"/></svg>